<?xml version="1.0" standalone="no"?>
<!DOCTYPE svg PUBLIC "-//W3C//DTD SVG 20010904//EN"
 "http://www.w3.org/TR/2001/REC-SVG-20010904/DTD/svg10.dtd">
<svg version="1.0" xmlns="http://www.w3.org/2000/svg"
 width="345.000000pt" height="349.000000pt" viewBox="0 0 345.000000 349.000000"
 preserveAspectRatio="xMidYMid meet">

<g transform="translate(0.000000,349.000000) scale(0.100000,-0.100000)"
fill="#000000" stroke="none">
<path d="M1594 3380 c-752 -71 -1354 -625 -1485 -1366 -29 -165 -29 -393 0
-558 119 -669 621 -1191 1284 -1335 501 -109 1039 31 1429 372 448 392 652
1006 527 1584 -92 425 -342 792 -703 1033 -298 199 -702 303 -1052 270z m444
-189 c134 -28 211 -56 347 -121 155 -75 276 -161 400 -285 224 -225 363 -493
416 -806 29 -169 23 -412 -14 -569 -136 -572 -555 -991 -1127 -1127 -157 -37
-400 -43 -569 -14 -313 53 -581 192 -806 416 -124 124 -210 244 -285 400 -112
231 -145 378 -145 650 0 272 33 419 145 650 211 437 622 742 1105 820 127 20
408 13 533 -14z"/>
<path d="M1720 2684 c-141 -30 -295 -136 -353 -242 -62 -114 -71 -247 -25
-369 34 -93 79 -157 263 -378 125 -150 171 -215 208 -293 30 -62 32 -75 32
-172 0 -99 -2 -108 -31 -160 -35 -63 -105 -121 -167 -140 -65 -19 -167 -16
-213 8 -85 44 -124 113 -124 219 0 84 22 134 78 185 41 37 120 68 174 68 72 0
-15 130 -108 160 -57 19 -169 8 -229 -22 -64 -33 -139 -113 -170 -181 -52
-113 -52 -261 -1 -372 78 -171 296 -276 541 -261 500 30 780 445 575 852 -44
87 -96 154 -249 324 -170 189 -225 276 -237 381 -13 108 44 222 130 263 51 24
149 21 197 -6 98 -55 105 -220 12 -327 l-37 -44 32 -28 c83 -74 215 -56 279
39 50 75 53 210 7 308 -41 87 -144 160 -266 189 -78 18 -232 18 -318 -1z"/>
</g>
</svg>
