<?xml version="1.0" encoding="utf-8"?>
<!-- Generator: Adobe Illustrator 22.1.0, SVG Export Plug-In . SVG Version: 6.00 Build 0)  -->
<svg version="1.1" id="Layer_1" xmlns="http://www.w3.org/2000/svg" xmlns:xlink="http://www.w3.org/1999/xlink" x="0px" y="0px"
	 viewBox="0 0 449 60.6" style="enable-background:new 0 0 449 60.6;" xml:space="preserve">
<style type="text/css">
	.st0{fill:#3B3B3B;}
	.st1{fill:url(#SVGID_1_);}
	.st2{fill:url(#SVGID_2_);}
	.st3{fill:url(#SVGID_3_);}
	.st4{fill:url(#SVGID_4_);}
	.st5{fill:url(#SVGID_5_);}
	.st6{fill:url(#SVGID_6_);}
	.st7{fill:url(#SVGID_7_);}
	.st8{fill:url(#SVGID_8_);}
	.st9{fill:url(#SVGID_9_);}
</style>
<title>Asset 2logo-top</title>
<g id="Layer_2_1_">
	<g id="Layer_2-2">
		<path class="st0" d="M91.6,40.3c0,1.8-1.5,3.3-3.3,3.4h-1.7c-1.9,0-3.4-1.5-3.5-3.4c0,0,0,0,0,0V19.8c0-1.9,1.6-3.4,3.5-3.4
			c0,0,0,0,0,0h1.7c1.8,0.1,3.3,1.6,3.3,3.4v4.1c0.1,0.6-0.2,1.2-0.7,1.5l-2,0.9v-6c0-0.8-0.7-1.5-1.5-1.5s-1.5,0.7-1.5,1.5v19.6
			c0,0.8,0.7,1.5,1.5,1.5s1.5-0.7,1.5-1.5v-3.6c-0.1-0.6,0.2-1.2,0.7-1.5c0.2-0.1,1.3-0.6,2-0.9L91.6,40.3z"/>
		<path class="st0" d="M107.8,43.5v-9.8c0-1.3-0.7-1.7-1.4-1.7h-1.4v11.6h-2.8V16.6h5c1.9,0,3.4,1.5,3.4,3.4v8.3c0,0,0.1,2.1-1,2.4
			c1.1,0.5,1,2.6,1,2.6v10.3L107.8,43.5z M106.4,29.3c0.7,0,1.4-0.3,1.4-1.5v-7.2c0.1-0.7-0.5-1.3-1.2-1.4c-0.1,0-0.2,0-0.3,0h-1.4
			v10.1L106.4,29.3z"/>
		<path class="st0" d="M123.9,16.6c0.6,0,1.1,0.4,1.1,1c0,0,0,0.1,0,0.1v25.7h-2c-0.7,0-0.8-0.4-0.8-0.6V16.6H123.9z"/>
		<path class="st0" d="M145.6,43.5h-3L140.1,25l-2.4,18.5h-3l4.1-26.8h1.5c1.2,0,1.3,0.7,1.5,1.5L145.6,43.5z"/>
		<path class="st0" d="M159.5,16.6c1.9,0,3.4,1.5,3.4,3.4v20.1c0,1.9-1.5,3.4-3.4,3.4h-5.3V16.6H159.5z M160.2,20.8
			c0.1-0.7-0.5-1.3-1.2-1.4c-0.1,0-0.2,0-0.3,0h-1.8v21.3h1.8c0.7,0.1,1.4-0.4,1.4-1.1c0-0.1,0-0.2,0-0.3V20.8z"/>
		<path class="st0" d="M178.8,16.4c1.8,0.1,3.3,1.6,3.3,3.4v20.5c0,1.8-1.5,3.3-3.3,3.4h-2.1c-1.9,0-3.4-1.5-3.5-3.4V19.8
			c0-1.9,1.6-3.4,3.5-3.4c0,0,0,0,0,0L178.8,16.4z M177.8,41.3c0.8,0,1.5-0.7,1.5-1.5c0,0,0,0,0,0V20.3c0-0.8-0.6-1.5-1.4-1.5
			c0,0,0,0,0,0h-0.4c-0.8,0-1.4,0.7-1.5,1.5v19.5c0,0.8,0.6,1.5,1.5,1.5H177.8z"/>
		<path class="st0" d="M198.2,43.5v-9.8c0-1.3-0.7-1.7-1.4-1.7h-1.5v11.6h-2.8V16.6h5c1.9,0,3.4,1.5,3.4,3.4v8.3c0,0,0.1,2.1-1,2.4
			c1.1,0.5,1,2.6,1,2.6v10.3L198.2,43.5z M196.8,29.3c0.7,0,1.4-0.3,1.4-1.5v-7.2c0.1-0.7-0.5-1.3-1.2-1.4c-0.1,0-0.2,0-0.2,0h-1.5
			v10.1L196.8,29.3z"/>
		<path class="st0" d="M220.6,43.5h-3L215.2,25l-2.4,18.5h-3l4.1-26.8h1.5c1.2,0,1.3,0.7,1.5,1.5L220.6,43.5z"/>
		<path class="st0" d="M253.7,16.6c1.9,0,3.4,1.5,3.4,3.4v20.1c0,1.9-1.5,3.4-3.4,3.4h-5.3V16.6H253.7z M254.4,20.8
			c0.1-0.7-0.5-1.3-1.2-1.4c-0.1,0-0.2,0-0.3,0h-1.8v21.3h1.8c0.7,0.1,1.4-0.4,1.4-1.1c0-0.1,0-0.2,0-0.3V20.8z"/>
		<path class="st0" d="M277.3,40.7c-0.3,0.7-0.8,1.8-0.9,2c-0.3,0.5-0.9,0.8-1.5,0.7h-6.1v-26c0-0.4,0.4-0.8,0.8-0.8h7.2l-0.9,2
			c-0.3,0.5-0.9,0.8-1.5,0.8h-2.2c-0.3,0-0.6,0.3-0.6,0.6c0,0,0,0,0,0v8h4.2c-0.3,0.7-0.8,1.8-0.9,2c-0.3,0.5-0.9,0.8-1.5,0.7h-1.2
			c-0.4,0-0.6,0.3-0.6,0.7v9.3L277.3,40.7z"/>
		<path class="st0" d="M316.6,43.5h-2.7V29.6l-2.1,9.2h-0.8c-1.6,0-1.9-1.6-2.1-2.2l-1.6-7v13.8h-2.7V16.6h1.7c0.6,0,1.2,0.4,1.3,1
			l3.2,15.4l3-15.4c0.1-0.6,0.6-1,1.2-1h1.7L316.6,43.5z"/>
		<path class="st0" d="M334.5,40.3c0,1.8-1.5,3.3-3.3,3.3l0,0h-2.1c-1.8,0-3.4-1.4-3.4-3.2c0,0,0,0,0-0.1V17.4
			c0-0.4,0.4-0.8,0.8-0.8h2v23.2c0,0.8,0.6,1.4,1.4,1.5c0,0,0,0,0,0h0.4c0.8,0,1.5-0.6,1.5-1.5V16.6h2.8V40.3z"/>
		<path class="st0" d="M353.6,43.5h-1.3c-1,0-1.8-0.7-1.8-1.7l-2.9-13.3v15h-2.8V16.6h1.3c1.5,0,1.8,0.7,2,1.5l2.8,13.9V16.7h2.8
			L353.6,43.5z"/>
		<path class="st0" d="M369.4,16.6c1.8,0,3.3,1.5,3.4,3.4v20.1c0,1.8-1.5,3.3-3.4,3.4h-5.3V16.6H369.4z M370.1,20.8
			c0.1-0.7-0.5-1.3-1.2-1.4c-0.1,0-0.2,0-0.3,0h-1.8v21.3h1.8c0.7,0.1,1.4-0.4,1.4-1.1c0-0.1,0-0.2,0-0.3L370.1,20.8z"/>
		<path class="st0" d="M388.7,16.4c1.8,0.1,3.3,1.6,3.3,3.4v20.5c0,1.8-1.5,3.3-3.3,3.4h-2.1c-1.9,0-3.4-1.5-3.5-3.4V19.8
			c0-1.9,1.6-3.4,3.5-3.4c0,0,0,0,0,0L388.7,16.4z M387.8,41.3c0.8,0,1.5-0.7,1.5-1.5c0,0,0,0,0,0V20.3c0-0.8-0.6-1.5-1.4-1.5
			c0,0,0,0,0,0h-0.4c-0.8,0-1.5,0.7-1.5,1.5v19.5c0,0.8,0.7,1.5,1.5,1.5H387.8z"/>
		<path class="st0" d="M408.2,23.4v-3.1c0.1-0.8-0.5-1.5-1.3-1.6c-0.8-0.1-1.5,0.5-1.6,1.3c0,0.1,0,0.2,0,0.3v2.6
			c0.1,1.3,0.5,2.5,1.2,3.6l3.3,6.2c0.8,1.3,1.2,2.7,1.3,4.2v3.4c0,1.9-1.5,3.4-3.4,3.4c0,0,0,0,0,0h-1.7c-1.8-0.1-3.3-1.6-3.3-3.4
			v-2.7c-0.1-0.6,0.2-1.2,0.8-1.5c0.2-0.1,1.3-0.6,2-0.9v4.7c-0.1,0.8,0.5,1.5,1.3,1.6s1.5-0.5,1.6-1.3c0-0.1,0-0.2,0-0.3v-3.1
			c-0.1-1.3-0.5-2.5-1.2-3.6l-3.3-6.2c-0.8-1.3-1.2-2.8-1.2-4.2V20c0-1.9,1.5-3.5,3.5-3.6h1.7c1.8,0.2,3.3,1.7,3.3,3.6v1
			c0.1,0.6-0.2,1.2-0.8,1.5C410,22.6,408.9,23.1,408.2,23.4z"/>
		
			<radialGradient id="SVGID_1_" cx="21.1" cy="-12.73" r="98.48" gradientTransform="matrix(1 0 0 -1 0 59.89)" gradientUnits="userSpaceOnUse">
			<stop  offset="0" style="stop-color:#D91921"/>
			<stop  offset="1" style="stop-color:#282781"/>
		</radialGradient>
		<polygon class="st1" points="22.3,59.2 24.3,60 29.6,57.4 31.1,53.7 35.4,50.9 37.4,48.5 38.8,43 36.8,39.9 35.1,40.6 34.5,40.3 
			32.8,41.5 31.4,41.5 29.7,44.2 29.7,45.5 28.2,46.3 25.3,51.5 23.8,53.5 23.8,55.5 21.2,54.4 15.9,55.5 13.7,56.5 11.4,54.7 
			11.3,52.2 9.6,50.7 7.8,47.7 7.1,42 7.4,41.3 11.2,37.2 12.2,36.6 13,33.7 15,34.9 22,34.8 23,36.5 23.1,44.3 23.3,45.2 
			22.7,46.3 18.5,47.8 17.4,48.2 17.3,46.8 15.9,47.1 14.6,46.3 14.5,42.4 16.9,41.3 16.3,43.3 17.1,44.9 18.2,44.5 19.6,44.8 
			20.5,44 21.4,41 19.6,37.5 17.3,37.1 15.1,37.2 11.9,40.2 10,43 9.8,44.4 10.6,45.6 10.3,47.3 15.5,52.9 15.9,54 16.8,52.6 
			18.2,52.6 20.9,51.5 22.6,52 23.5,50.7 24.1,50.7 26.2,47.1 26.7,44.9 26.3,41.6 28.2,40 30.5,36.6 30.5,31.9 30.9,30.8 30.7,28 
			30.3,27.5 30.4,25.7 31.1,23 31,18.2 28.8,17.3 26.9,17.5 26.8,23.5 28.3,25.7 28.4,26.4 26.8,27.7 25.7,30.4 25.6,31.5 
			24.6,31.2 24,30 21.9,27.4 20.3,27.9 20,28.6 19.1,28.3 17.9,28.9 17,30.6 18.1,31.8 17.4,32.1 16.4,31.5 15.1,31.2 15,29.7 
			14.4,28 13.8,27.5 14.2,26.2 13.6,21.2 12.6,20.2 10.6,20.8 10.1,24.9 10.2,28.4 10,30 10.3,30.8 9.9,31.8 9.6,33.2 9.2,34.5 
			8.7,34.4 7.6,33.5 5.9,33.3 5.3,31.9 3.8,32.6 3.4,34.6 3.3,36.1 4.5,37.1 4.6,38.1 3.7,40.3 4.2,44.5 5.7,50.5 5.9,53.9 9.4,56 
			12.2,59.8 16.1,60.6 19.9,58.7 		"/>
		
			<radialGradient id="SVGID_2_" cx="21.1" cy="-12.73" r="98.48" gradientTransform="matrix(1 0 0 -1 0 59.89)" gradientUnits="userSpaceOnUse">
			<stop  offset="0" style="stop-color:#D91921"/>
			<stop  offset="1" style="stop-color:#282781"/>
		</radialGradient>
		<polygon class="st2" points="37.2,38.5 38,40.8 39.3,40.4 40.3,40.4 41,40.8 42.2,39.2 44.3,35.6 44,33.7 45,33.7 45.8,32.9 
			46.3,31.6 47.4,29.8 46.5,28 44.7,28.2 40,32.5 40.3,34 40.2,35.3 41.4,36.4 38.2,36.1 		"/>
		
			<radialGradient id="SVGID_3_" cx="21.1" cy="-12.73" r="98.48" gradientTransform="matrix(1 0 0 -1 0 59.89)" gradientUnits="userSpaceOnUse">
			<stop  offset="0" style="stop-color:#D91921"/>
			<stop  offset="1" style="stop-color:#282781"/>
		</radialGradient>
		<polygon class="st3" points="27.5,16.4 29.8,15.8 30.1,14.4 27.3,12 26.7,13.6 		"/>
		
			<radialGradient id="SVGID_4_" cx="21.1" cy="-12.73" r="98.48" gradientTransform="matrix(1 0 0 -1 0 59.89)" gradientUnits="userSpaceOnUse">
			<stop  offset="0" style="stop-color:#D91921"/>
			<stop  offset="1" style="stop-color:#282781"/>
		</radialGradient>
		<polygon class="st4" points="27.9,11.1 29.3,12.1 30.5,13.4 31,13.4 30.3,11.7 30.3,11 31.2,10.1 31.5,8.1 31.2,7.3 31.3,5.3 
			30,2.9 28.4,2.5 27.5,4.7 27.3,9.6 		"/>
		
			<radialGradient id="SVGID_5_" cx="21.1" cy="-12.73" r="98.48" gradientTransform="matrix(1 0 0 -1 0 59.89)" gradientUnits="userSpaceOnUse">
			<stop  offset="0" style="stop-color:#D91921"/>
			<stop  offset="1" style="stop-color:#282781"/>
		</radialGradient>
		<polygon class="st5" points="18.5,26.4 19.5,27.2 20.9,25.2 21.2,24.5 21.6,24.7 22.6,23.8 22.1,21.9 22.7,19.6 21.2,14.6 
			22.4,13.3 22.3,11 20.9,11 19.5,12.9 18.6,12.2 18.4,12.7 18.2,14.4 18.9,15.2 18.5,16 18.2,24.3 		"/>
		
			<radialGradient id="SVGID_6_" cx="21.1" cy="-12.73" r="98.48" gradientTransform="matrix(1 0 0 -1 0 59.89)" gradientUnits="userSpaceOnUse">
			<stop  offset="0" style="stop-color:#D91921"/>
			<stop  offset="1" style="stop-color:#282781"/>
		</radialGradient>
		<polygon class="st6" points="19.7,11.4 21.6,10.1 21.5,9.6 22,8.6 21.5,3.7 19.4,0 18.1,0 17.5,2.8 17.5,5.4 17.8,5.9 17.5,6.3 
			17.5,9.1 18.4,10.9 		"/>
		
			<radialGradient id="SVGID_7_" cx="21.1" cy="-12.73" r="98.48" gradientTransform="matrix(1 0 0 -1 0 59.89)" gradientUnits="userSpaceOnUse">
			<stop  offset="0" style="stop-color:#D91921"/>
			<stop  offset="1" style="stop-color:#282781"/>
		</radialGradient>
		<polygon class="st7" points="11.5,19.7 13.2,18.3 12.4,14.4 11,13.4 11.1,11.4 11.8,9.7 11.3,8 9,4 8.1,4.4 8,10.7 9.1,13.8 
			9.1,14.3 8.4,14.9 9.5,17 9.6,19.4 		"/>
		
			<radialGradient id="SVGID_8_" cx="21.1" cy="-12.73" r="98.48" gradientTransform="matrix(1 0 0 -1 0 59.89)" gradientUnits="userSpaceOnUse">
			<stop  offset="0" style="stop-color:#D91921"/>
			<stop  offset="1" style="stop-color:#282781"/>
		</radialGradient>
		<polygon class="st8" points="6.2,29 5.4,29.9 5.4,31.1 6.5,31.7 6.7,31.3 6.7,29 		"/>
		
			<radialGradient id="SVGID_9_" cx="21.1" cy="-12.73" r="98.48" gradientTransform="matrix(1 0 0 -1 0 59.89)" gradientUnits="userSpaceOnUse">
			<stop  offset="0" style="stop-color:#D91921"/>
			<stop  offset="1" style="stop-color:#282781"/>
		</radialGradient>
		<polygon class="st9" points="3.1,29.7 4.8,31.2 5.1,30.7 5.2,29.2 6.3,27.8 5.2,22.2 2.7,21.2 3.4,20.6 4.4,20.1 4.5,19.7 
			4.2,18.1 4,16 1.3,12 0,12.4 0.6,16.9 1.1,20.6 2.4,20.8 2.1,21.3 1.5,22.4 1.6,23.7 		"/>
	</g>
</g>
</svg>
