<?xml version="1.0" encoding="UTF-8" standalone="no"?>
<svg
   xmlns:dc="http://purl.org/dc/elements/1.1/"
   xmlns:cc="http://creativecommons.org/ns#"
   xmlns:rdf="http://www.w3.org/1999/02/22-rdf-syntax-ns#"
   xmlns:svg="http://www.w3.org/2000/svg"
   xmlns="http://www.w3.org/2000/svg"
   viewBox="0 0 1122.52 365.98132"
   height="365.98132"
   width="1122.52"
   xml:space="preserve"
   id="svg2"
   version="1.1"><metadata
     id="metadata8"><rdf:RDF><cc:Work
         rdf:about=""><dc:format>image/svg+xml</dc:format><dc:type
           rdf:resource="http://purl.org/dc/dcmitype/StillImage" /></cc:Work></rdf:RDF></metadata><defs
     id="defs6"><clipPath
       id="clipPath18"
       clipPathUnits="userSpaceOnUse"><path
         id="path16"
         d="M 0,274.486 H 841.89 V 0 H 0 Z" /></clipPath></defs><g
     transform="matrix(1.3333333,0,0,-1.3333333,0,365.98133)"
     id="g10"><g
       id="g12"><g
         clip-path="url(#clipPath18)"
         id="g14"><g
           transform="translate(389.0184,119.5522)"
           id="g20"><path
             id="path22"
             style="fill:#717274;fill-opacity:1;fill-rule:nonzero;stroke:none"
             d="m 0,0 c -1.532,-2.667 -4.233,-2.654 -7.234,-2.661 v 9.917 c 2.515,0.442 4.98,0.469 6.795,-1.735 C 0.923,3.869 1.053,1.834 0,0 m -7.289,21.24 c 2.489,0.907 5.024,0.459 6.195,-1.048 0.888,-1.143 0.92,-3.498 0.064,-4.779 -1.206,-1.805 -3.306,-2.282 -6.26,-1.422 0.001,2.427 0.001,4.854 0.001,7.249 M 3.034,11.155 c 0.195,0.222 0.384,0.43 0.567,0.643 5.056,5.892 2.62,13.72 -4.934,15.494 -3.788,0.889 -7.646,0.58 -11.441,-0.258 -0.339,-0.075 -0.63,-0.367 -1.054,-0.627 V -7.985 c 5.572,-1.014 10.881,-1.47 15.856,1.11 5.958,3.091 7.103,11.55 2.441,16.414 -0.493,0.514 -1.263,0.8 -1.435,1.616" /></g><g
           transform="translate(347.2497,121.6625)"
           id="g24"><path
             id="path26"
             style="fill:#717274;fill-opacity:1;fill-rule:nonzero;stroke:none"
             d="m 0,0 c -1.256,-2.696 -3.153,-4.727 -6.351,-4.799 -3.184,-0.072 -5.253,1.738 -6.526,4.489 -2.428,5.245 -2.242,10.531 0.077,15.746 1.149,2.581 3.199,4.253 6.073,4.326 3.003,0.076 5.076,-1.625 6.435,-4.233 C 0.994,13.062 1.488,10.424 1.393,7.574 1.514,5.002 1.126,2.417 0,0 m -5.663,25.94 c -5.908,0.284 -10.407,-2.508 -13.047,-7.688 -3.62,-7.105 -3.753,-14.53 -0.177,-21.671 4.75,-9.483 17.221,-10.301 23.483,-1.734 2.91,3.981 3.555,8.583 3.653,13.017 -0.113,3.334 -0.527,6.284 -1.739,9.088 -2.318,5.367 -6.241,8.704 -12.173,8.988" /></g><g
           transform="translate(300.3307,133.8262)"
           id="g28"><path
             id="path30"
             style="fill:#717274;fill-opacity:1;fill-rule:nonzero;stroke:none"
             d="m 0,0 c -1.551,-2.566 -4.12,-2.493 -6.853,-2.24 -0.416,1.552 -0.156,3.128 -0.204,4.675 -0.046,1.484 -0.01,2.97 -0.01,4.789 2.717,0.204 5.233,0.654 6.928,-1.668 C 1.118,3.834 1.086,1.797 0,0 m 2.998,-5.411 c 0.666,0.611 1.276,1.067 1.76,1.63 5.1,5.933 2.169,15.205 -5.462,16.828 -4.135,0.879 -8.349,0.603 -12.14,-0.38 -0.99,-0.971 -0.825,-1.85 -0.826,-2.679 -0.006,-9.935 -0.006,-19.871 -10e-4,-29.806 10e-4,-0.92 -0.184,-1.908 0.968,-2.714 1.523,-0.166 3.264,-0.288 5.304,0.196 0.858,4.546 -0.103,9.23 0.523,13.774 4.482,0.798 5.613,-1.043 6.273,-4.196 0.479,-2.29 0.981,-4.577 1.547,-6.846 0.265,-1.065 0.43,-2.233 1.642,-2.999 1.685,0.127 3.555,-0.525 5.531,0.573 -0.187,2.868 -1.357,5.546 -1.793,8.364 -0.456,2.948 -1.316,5.795 -3.326,8.255" /></g><g
           transform="translate(468.6036,134.046)"
           id="g32"><path
             id="path34"
             style="fill:#717274;fill-opacity:1;fill-rule:nonzero;stroke:none"
             d="m 0,0 c -1.47,-2.917 -4.222,-2.603 -7.074,-2.494 v 9.57 C -4.606,7.614 -2.169,7.581 -0.397,5.553 0.998,3.956 0.939,1.863 0,0 m 3.069,-5.823 c 0.789,0.943 1.571,1.76 2.219,2.672 3.555,5.005 2.196,14.596 -6.303,16.042 -4.078,0.694 -8.188,0.559 -12.457,-0.618 v -34.929 c 2.063,-0.279 3.877,-0.353 6.088,0.049 0.585,4.601 -0.085,9.261 0.378,13.773 4.157,0.481 5.295,-0.22 6.238,-3.732 0.339,-1.264 0.461,-2.587 0.817,-3.844 0.603,-2.127 0.622,-4.466 2.187,-6.39 1.983,0.237 4.182,-0.878 6.017,0.967 -0.888,2.872 -1.616,5.58 -2.116,8.339 -0.506,2.792 -1.353,5.438 -3.068,7.671" /></g><g
           transform="translate(540.689,127.7785)"
           id="g36"><path
             id="path38"
             style="fill:#717274;fill-opacity:1;fill-rule:nonzero;stroke:none"
             d="M 0,0 C 0.746,2.779 1.384,5.452 2.575,8.275 3.443,5.43 4.225,2.868 5.085,0.05 3.343,-0.309 1.759,-0.235 0,0 M -0.886,18.75 C -4.299,7.391 -7.757,-4.12 -11.225,-15.663 c 2.148,-1.566 4.186,-0.774 6.301,-0.834 1.626,3.299 1.918,7.033 3.378,10.117 h 8.143 c 1.417,-3.356 1.888,-6.927 3.435,-10.165 2.205,0.207 4.384,-0.775 6.402,0.958 C 12.916,-3.953 9.435,7.559 6.013,18.877 3.165,19.543 1.397,19.506 -0.886,18.75" /></g><g
           transform="translate(628.6381,127.6696)"
           id="g40"><path
             id="path42"
             style="fill:#717274;fill-opacity:1;fill-rule:nonzero;stroke:none"
             d="M 0,0 C 0.392,2.923 1.399,5.47 2.425,8.514 3.344,5.472 4.118,2.911 4.946,0.173 3.279,-0.263 1.748,-0.049 0,0 M -0.958,19.028 C -4.399,7.573 -7.857,-3.94 -11.286,-15.355 c 1.774,-1.332 3.115,-1.464 6.363,-0.734 1.579,3.064 1.688,6.762 3.378,9.851 h 8.023 c 1.398,-3.311 1.826,-6.899 3.526,-10.292 2.051,0.424 4.232,-0.787 6.32,1.044 C 12.749,-3.683 9.264,7.823 5.804,19.25 3.34,19.487 1.322,19.712 -0.958,19.028" /></g><g
           transform="translate(708.265,117.4133)"
           id="g44"><path
             id="path46"
             style="fill:#717274;fill-opacity:1;fill-rule:nonzero;stroke:none"
             d="m 0,0 c 0.072,3.212 -0.195,6.076 0.234,9.243 h 10.603 c 0.752,2.38 0.945,4.241 -0.194,6.417 H 0.108 c -0.139,2.663 -0.195,4.971 0.008,7.369 3.984,0.744 7.96,-0.382 11.919,0.748 -0.113,2.025 0.411,3.772 -0.524,5.742 C 6.069,29.94 0.563,29.63 -4.933,29.695 -5.54,29.702 -5.995,29.378 -6.421,28.847 -6.472,28.56 -6.593,28.193 -6.594,27.827 -6.606,17.222 -6.608,6.617 -6.604,-3.988 c 0,-0.752 0.01,-1.52 0.86,-2.094 h 17.868 c 0.872,1.996 0.74,3.858 0.058,6.082 z" /></g><g
           transform="translate(422.8758,117.549)"
           id="g48"><path
             id="path50"
             style="fill:#717274;fill-opacity:1;fill-rule:nonzero;stroke:none"
             d="M 0,0 V 8.968 C 3.712,9.42 7.282,8.74 10.745,9.393 c 0.556,2.129 0.746,3.921 -0.137,5.917 -3.555,0.522 -7.206,-0.145 -10.809,0.391 0.04,2.597 -0.269,4.913 0.212,7.299 3.901,0.462 7.752,-0.287 11.491,0.465 0.397,2.092 0.516,3.817 -0.054,5.623 -1.994,0.916 -4.076,0.385 -6.09,0.474 -1.967,0.087 -3.945,0.106 -5.91,-0.006 -1.995,-0.113 -4.098,0.57 -6.028,-0.603 V -6.031 c 4.406,-0.723 16.957,-0.468 18.801,0.35 0.284,1.696 0.384,3.427 -0.144,5.382 C 7.997,0.119 3.918,-0.227 0,0" /></g><g
           transform="translate(754.7134,130.7076)"
           id="g52"><path
             id="path54"
             style="fill:#717274;fill-opacity:1;fill-rule:nonzero;stroke:none"
             d="M 0,0 C -1.32,0.875 -2.787,1.534 -4.216,2.233 -5.23,2.729 -6.24,3.221 -7.083,3.982 -8.342,5.118 -8.831,6.857 -8.24,8.314 c 0.589,1.451 1.747,2.144 3.294,2.211 1.515,0.066 2.992,-0.058 4.385,-0.749 C 0.265,9.367 1.1,8.817 2.222,9.528 c 0.717,1.567 1.53,3.235 1.139,5.351 -2.97,1.775 -6.179,2.495 -9.645,1.86 -4.689,-0.859 -7.682,-3.713 -8.618,-8.131 -0.901,-4.261 0.838,-8.255 4.821,-10.842 1.172,-0.762 2.448,-1.38 3.721,-1.965 1.203,-0.552 2.371,-1.144 3.314,-2.076 1.358,-1.344 1.415,-3.013 0.948,-4.716 -0.452,-1.649 -1.726,-2.376 -3.328,-2.598 -2.218,-0.307 -4.279,0.21 -6.24,1.234 -0.729,0.381 -1.415,1.003 -2.485,0.47 -1.014,-1.485 -1.308,-3.295 -1.509,-5.384 3.772,-2.547 7.833,-3.408 12.257,-2.357 4.327,1.027 7.125,3.696 7.967,8.113 C 5.47,-6.76 4.163,-2.759 0,0" /></g><g
           transform="translate(494.5136,147.1236)"
           id="g56"><path
             id="path58"
             style="fill:#717274;fill-opacity:1;fill-rule:nonzero;stroke:none"
             d="m 0,0 c -0.598,0 -1.088,-0.23 -1.6,-0.867 -0.19,-1.572 -0.32,-3.31 0.166,-5.193 2.692,-1.019 5.588,0.106 8.553,-0.752 0,-4.757 -0.024,-9.513 0.006,-14.27 0.031,-4.832 -0.138,-9.675 0.11,-14.546 2.333,-0.4 4.226,-0.573 6.527,0.205 v 28.689 c 3.118,0.68 5.992,-0.317 8.673,0.724 0.368,2.022 0.637,3.834 -0.402,6.01 C 14.76,0 7.38,0 0,0" /></g><g
           transform="translate(670.1891,117.5365)"
           id="g60"><path
             id="path62"
             style="fill:#717274;fill-opacity:1;fill-rule:nonzero;stroke:none"
             d="m 0,0 v 29.061 c -2.207,0.774 -4.151,0.789 -5.921,0.146 -0.565,-0.68 -0.58,-1.242 -0.58,-1.807 0.001,-10.494 0.002,-20.988 -10e-4,-31.483 0,-0.766 0.036,-1.506 0.866,-2.097 h 17.745 c 0.872,1.948 0.606,3.756 0.159,6.18 z" /></g><g
           transform="translate(592.7236,146.7775)"
           id="g64"><path
             id="path66"
             style="fill:#717274;fill-opacity:1;fill-rule:nonzero;stroke:none"
             d="m 0,0 c -0.841,-1.078 -0.57,-2.147 -0.574,-3.151 -0.023,-6.281 -0.005,-12.562 -0.019,-18.843 -0.002,-1.218 -0.007,-2.443 -0.142,-3.651 -0.375,-3.381 -1.758,-4.406 -5.075,-3.944 -0.815,0.113 -1.583,0.657 -2.444,0.322 -1.064,-1.597 -1.281,-2.494 -1.27,-5.382 5.788,-3.404 12.399,-1.103 14.598,4.94 0.682,1.875 0.914,3.816 0.914,5.798 10e-4,7.219 0.009,14.437 0.005,21.656 0,0.645 0.117,1.319 -0.456,2.159 C 3.794,0.703 1.845,0.511 0,0" /></g><g
           transform="translate(132.8921,76.0311)"
           id="g68"><path
             id="path70"
             style="fill:#e8625d;fill-opacity:1;fill-rule:nonzero;stroke:none"
             d="m 0,0 c -10.33,-0.013 -17.417,-8.543 -17.112,-17.16 -0.558,-8.768 7.021,-17.441 17.083,-17.503 9.385,-0.058 17.304,7.749 17.38,17.328 C 17.415,-9.312 10.99,0.014 0,0" /></g><g
           transform="translate(91.0348,120.6165)"
           id="g72"><path
             id="path74"
             style="fill:#e8625d;fill-opacity:1;fill-rule:nonzero;stroke:none"
             d="m 0,0 c 0.093,7.931 -6.851,14.325 -14.238,14.3 -7.515,-0.025 -14.384,-6.733 -13.985,-14.164 -0.392,-7.369 6.349,-14.129 13.99,-14.159 C -7.046,-14.051 -0.094,-7.974 0,0" /></g><g
           transform="translate(96.215,97.9135)"
           id="g76"><path
             id="path78"
             style="fill:#e8625d;fill-opacity:1;fill-rule:nonzero;stroke:none"
             d="m 0,0 c -8.255,0.16 -14.132,-6.492 -14.249,-13.933 -0.111,-7.077 5.191,-14.131 13.914,-14.276 8.522,-0.142 14.147,6.698 14.269,13.931 C 14.173,-8.021 9.287,-0.179 0,0" /></g><g
           transform="translate(179.8604,65.5382)"
           id="g80"><path
             id="path82"
             style="fill:#e8625d;fill-opacity:1;fill-rule:nonzero;stroke:none"
             d="m 0,0 c -7.432,0.514 -13.814,-6.314 -14.022,-13.409 -0.224,-7.656 6.595,-14.345 13.89,-14.237 7.565,0.111 13.697,6.169 13.857,13.676 C 13.906,-5.446 6.246,0.529 0,0" /></g><g
           transform="translate(76.2384,145.4262)"
           id="g84"><path
             id="path86"
             style="fill:#e8625d;fill-opacity:1;fill-rule:nonzero;stroke:none"
             d="M 0,0 C 6.866,-0.146 14.127,5.477 14.042,13.736 13.958,21.82 8.1,27.445 0.108,27.593 -7.269,27.73 -13.399,21.382 -13.427,13.975 -13.902,6.39 -6.964,0.148 0,0" /></g><g
           transform="translate(220.5283,80.8328)"
           id="g88"><path
             id="path90"
             style="fill:#e8625d;fill-opacity:1;fill-rule:nonzero;stroke:none"
             d="m 0,0 c -5.821,0.159 -11.783,-5.498 -11.22,-11.204 -0.606,-5.606 4.685,-11.386 10.991,-11.425 6.32,-0.039 11.637,5.08 11.509,11.334 C 11.132,-4.097 5.184,-0.141 0,0" /></g><g
           transform="translate(93.0304,181.572)"
           id="g92"><path
             id="path94"
             style="fill:#e8625d;fill-opacity:1;fill-rule:nonzero;stroke:none"
             d="M 0,0 C 5.262,-0.471 11.322,3.905 11.288,11.059 11.254,18.344 5.136,22.049 0.22,22.152 -5.996,22.281 -11.145,16.5 -11.128,10.997 -11.11,5.386 -5.821,-0.47 0,0" /></g><g
           transform="translate(177.723,144.9405)"
           id="g96"><path
             id="path98"
             style="fill:#e8625d;fill-opacity:1;fill-rule:nonzero;stroke:none"
             d="m 0,0 c -0.013,5.453 -4.619,9.895 -10.165,9.804 -6.172,-0.184 -9.853,-5.456 -9.566,-10.32 0.303,-5.124 4.747,-9.549 9.944,-9.476 C -4.526,-9.918 0.013,-5.284 0,0" /></g><g
           transform="translate(125.4583,211.0693)"
           id="g100"><path
             id="path102"
             style="fill:#e8625d;fill-opacity:1;fill-rule:nonzero;stroke:none"
             d="M 0,0 C 5.496,0.215 9.474,4.045 9.733,9.633 9.983,15.002 5.478,19.421 0.088,19.591 -4.803,19.745 -10.081,15.299 -9.677,9.862 -9.685,4.423 -5.263,-0.206 0,0" /></g><g
           transform="translate(239.9249,107.6242)"
           id="g104"><path
             id="path106"
             style="fill:#e8625d;fill-opacity:1;fill-rule:nonzero;stroke:none"
             d="m 0,0 c -4.517,-0.099 -8.08,-3.8 -8.054,-8.366 0.025,-4.529 3.759,-8.242 8.23,-8.182 4.416,0.058 8.143,3.905 8.101,8.359 C 8.234,-3.778 4.32,0.095 0,0" /></g><g
           transform="translate(245.286,148.6821)"
           id="g108"><path
             id="path110"
             style="fill:#e8625d;fill-opacity:1;fill-rule:nonzero;stroke:none"
             d="m 0,0 c -4.415,0.134 -8.335,-3.868 -7.809,-8.092 -0.49,-3.49 2.917,-7.875 7.808,-7.826 5.251,0.053 8.016,4.163 7.924,8.098 C 7.827,-3.7 4.975,-0.151 0,0" /></g><g
           transform="translate(243.0624,168.5141)"
           id="g112"><path
             id="path114"
             style="fill:#e8625d;fill-opacity:1;fill-rule:nonzero;stroke:none"
             d="M 0,0 C 4.412,-0.021 7.383,3.856 6.885,7.149 7.176,10.976 3.681,14.19 -0.245,14.14 -3.942,14.093 -7.171,10.732 -7.171,7.042 -7.172,3.124 -3.948,0.019 0,0" /></g><g
           transform="translate(224.3679,200.7925)"
           id="g116"><path
             id="path118"
             style="fill:#e8625d;fill-opacity:1;fill-rule:nonzero;stroke:none"
             d="M 0,0 C 3.422,0.016 6.27,2.818 6.338,6.233 6.406,9.633 3.275,12.737 -0.14,12.657 -3.429,12.58 -6.376,9.539 -6.368,6.232 -6.36,2.954 -3.325,-0.016 0,0" /></g><g
           transform="translate(458.3302,176.0657)"
           id="g120"><path
             id="path122"
             style="fill:#9c9d9f;fill-opacity:1;fill-rule:nonzero;stroke:none"
             d="m 0,0 c -0.694,-4.567 -4.224,-6.814 -8.282,-6.697 -2.297,0.066 -4.129,1.851 -4.565,3.915 -0.604,2.863 0.448,5.338 2.942,6.652 1.916,1.01 4.008,1.495 6.161,1.641 1.114,0.076 2.238,0.014 3.786,0.014 C 0.042,3.505 0.261,1.716 0,0 M 5.645,-5.92 C 5.614,-1.415 5.55,3.09 5.628,7.593 5.661,9.491 5.382,11.337 5.034,13.162 4.25,17.273 1.009,20.58 -3.023,21.158 c -2.578,0.369 -5.218,0.427 -7.818,-0.256 -1.894,-0.497 -3.812,-0.869 -5.365,-2.202 -0.02,-1.421 0.428,-2.566 1.273,-3.67 2.616,1.501 5.315,2.058 8.194,1.972 4.704,-0.142 6.675,-2.391 6.178,-7.24 C -1.704,9.243 -2.942,9.545 -4.137,9.437 -7.521,9.132 -10.803,8.444 -13.75,6.673 c -3.435,-2.064 -5.026,-5.081 -4.828,-9.154 0.168,-3.458 1.732,-5.995 4.767,-7.363 4.171,-1.879 8.217,-1.194 11.949,1.411 0.652,0.454 1.072,1.379 2.099,1.069 0.771,-0.729 0.063,-1.882 0.989,-2.802 1.448,0.108 3.092,-0.293 4.868,0.27 -0.498,1.355 -0.44,2.671 -0.449,3.976" /></g><g
           transform="translate(374.4654,196.9955)"
           id="g124"><path
             id="path126"
             style="fill:#9c9d9f;fill-opacity:1;fill-rule:nonzero;stroke:none"
             d="m 0,0 c -4.041,1.125 -7.786,0.366 -11.013,-2.467 -0.666,-0.585 -1.118,-1.477 -2.085,-1.733 -0.902,1.243 0.03,2.727 -0.881,3.911 -1.44,0.142 -2.901,0.155 -4.382,-0.011 v -30.686 h 5.785 c 0,1.036 0,1.951 0,2.867 0.002,5.258 0.033,10.517 -0.007,15.775 -0.021,2.754 1.088,4.951 3.224,6.556 4.04,3.035 10.155,1.506 11.111,-4.035 0.305,-1.763 0.501,-3.51 0.486,-5.3 -0.036,-4.6 -0.024,-9.202 0,-13.803 0.003,-0.712 -0.266,-1.521 0.481,-2.116 h 5.064 c 0,7.202 0.273,14.147 -0.093,21.058 C 7.436,-5.183 4.974,-1.385 0,0" /></g><g
           transform="translate(310.917,191.7156)"
           id="g128"><path
             id="path130"
             style="fill:#9c9d9f;fill-opacity:1;fill-rule:nonzero;stroke:none"
             d="m 0,0 c 0.866,1.286 1.121,2.639 1.439,3.992 -1.3,1.018 -2.838,1.208 -4.26,1.434 -7.204,1.149 -14.255,-1.107 -17.827,-7.267 -2.515,-4.339 -2.861,-9.039 -1.632,-13.815 2.981,-11.582 16.22,-12.768 23.684,-8.772 -0.616,1.146 -0.088,2.724 -1.569,3.755 -5.658,-1.896 -11.106,-2.12 -15.06,3.423 -2.629,3.685 -2.568,10.24 0.077,13.872 C -11.151,2.112 -5.7,1.825 0,0" /></g><g
           transform="translate(417.1202,173.6443)"
           id="g132"><path
             id="path134"
             style="fill:#9c9d9f;fill-opacity:1;fill-rule:nonzero;stroke:none"
             d="m 0,0 c -3.144,4.469 -3.343,9.493 -0.727,14.109 3.629,6.405 9.612,5.698 15.522,3.949 0.979,2.34 0.979,2.34 0.95,4.161 -0.949,0.882 -2.217,0.965 -3.384,1.184 -9.826,1.843 -18.61,-2.892 -20.3,-12.764 -1.106,-6.461 0.312,-12.31 5.858,-16.24 5.606,-3.974 11.753,-3.387 17.886,-1.113 0.266,1.716 -0.556,2.926 -0.717,4.284 C 7.262,-4.517 2.74,-3.896 0,0" /></g><g
           transform="translate(321.1931,211.1681)"
           id="g136"><path
             id="path138"
             style="fill:#9c9d9f;fill-opacity:1;fill-rule:nonzero;stroke:none"
             d="M 0,0 V -45.137 H 5.537 C 6.119,-41.033 5.933,-1.85 5.361,0 Z" /></g><path
           id="path140"
           style="fill:#9c9d9f;fill-opacity:1;fill-rule:nonzero;stroke:none"
           d="m 338.749,165.941 h 5.511 v 30.704 h -5.511 z" /><g
           transform="translate(393.9151,165.8883)"
           id="g142"><path
             id="path144"
             style="fill:#9c9d9f;fill-opacity:1;fill-rule:nonzero;stroke:none"
             d="M 0,0 C 1.72,0 3.219,-0.011 4.717,0.011 4.974,0.015 5.229,0.16 5.509,0.248 v 30.507 l -5.509,0 z" /></g><g
           transform="translate(343.9828,210.0807)"
           id="g146"><path
             id="path148"
             style="fill:#9c9d9f;fill-opacity:1;fill-rule:nonzero;stroke:none"
             d="m 0,0 c -1.831,-2.93 -3.905,-5.788 -5.481,-9.134 1.5,-0.159 2.693,-0.21 3.956,0.024 2.352,2.962 5.196,5.57 7.427,9.065 C 3.696,0.211 1.954,0.195 0,0" /></g><g
           transform="translate(396.4754,209.034)"
           id="g150"><path
             id="path152"
             style="fill:#9c9d9f;fill-opacity:1;fill-rule:nonzero;stroke:none"
             d="M 0,0 C -0.712,-0.294 -1.588,-0.331 -2.24,-0.874 -4.03,-3.816 -3.914,-4.67 -1.311,-6.961 2.212,-7.195 2.943,-6.693 3.754,-3.566 2.872,-1.015 1.816,0.005 0,0" /></g><g
           transform="translate(316.65,81.5769)"
           id="g154"><path
             id="path156"
             style="fill:#e8625d;fill-opacity:1;fill-rule:nonzero;stroke:none"
             d="m 0,0 c -1.415,5.228 -6.786,6.947 -11.05,3.6 -0.636,-0.499 -1.03,-1.37 -1.996,-1.379 -4.211,4.126 -6.876,4.048 -11.78,0.438 -0.634,0.508 -0.034,1.508 -0.974,2.08 -0.791,-0.121 -1.817,0.389 -2.591,-0.185 v -19.891 c 1.317,-0.162 2.386,-0.272 3.391,0.039 0.133,0.296 0.273,0.461 0.274,0.628 0.03,3.565 0.063,7.129 0.052,10.693 -0.004,1.34 0.13,2.621 0.893,3.768 1.176,1.766 3.084,2.616 4.812,2.136 1.679,-0.466 2.81,-1.91 2.986,-4.009 0.109,-1.305 0.039,-2.625 0.074,-3.938 0.08,-3.067 -0.191,-6.147 0.169,-9.261 1.224,-0.28 2.295,-0.274 3.609,0.016 0,3.742 0.008,7.38 -0.004,11.018 -0.004,1.132 0.024,2.246 0.473,3.315 0.832,1.978 2.654,3.16 4.629,2.973 1.8,-0.171 3.201,-1.612 3.482,-3.834 0.188,-1.482 0.161,-2.995 0.173,-4.494 0.023,-2.981 0.007,-5.962 0.007,-8.984 0.635,-0.095 0.992,-0.184 1.351,-0.196 0.741,-0.024 1.484,-0.007 2.588,-0.007 0,4.113 0.046,7.854 -0.025,11.594 C 0.519,-2.582 0.339,-1.253 0,0" /></g><g
           transform="translate(453.5039,73.7704)"
           id="g158"><path
             id="path160"
             style="fill:#e8625d;fill-opacity:1;fill-rule:nonzero;stroke:none"
             d="m 0,0 c -0.396,-2.705 -2.671,-4.762 -5.382,-4.762 -2.562,-0.001 -4.97,2.139 -5.47,4.795 -0.155,0.823 -0.148,1.675 -0.216,2.514 -0.046,1.824 0.291,3.541 1.313,5.083 1.24,1.87 3.445,2.772 5.575,2.287 C -1.771,9.369 -0.448,8.004 -0.071,5.569 0.215,3.722 0.277,1.893 0,0 M 0.777,12.386 C 0.613,11.75 0.454,11.136 0.24,10.308 c -4.858,4.893 -11.415,2.587 -13.774,-1.967 -1.934,-3.732 -2.086,-7.593 -0.211,-11.336 2.299,-4.591 7.545,-5.94 11.99,-3.298 0.466,0.277 0.788,0.836 1.586,0.745 0.334,-1.444 0.167,-2.853 -0.334,-4.284 -1.122,-3.208 -4.719,-3.955 -8.076,-3.356 -1.189,0.212 -2.245,0.937 -3.494,0.974 -0.776,-0.69 -1.097,-1.495 -0.852,-2.478 3.022,-1.749 5.705,-2.171 9.176,-1.46 4.565,0.935 7.223,3.623 7.375,8.27 0.22,6.72 0.056,13.451 0.056,20.305 -0.855,0.29 -1.836,0.24 -2.905,-0.037" /></g><g
           transform="translate(428.2773,70.7273)"
           id="g162"><path
             id="path164"
             style="fill:#e8625d;fill-opacity:1;fill-rule:nonzero;stroke:none"
             d="m 0,0 c -2.449,-3.436 -7.109,-2.978 -9.273,0.836 -0.792,1.395 -1.238,2.926 -1.156,4.567 -0.089,2.037 0.475,3.901 1.621,5.56 2.24,3.243 7.156,3.114 9.191,-0.387 C 2.414,7.081 2.374,3.329 0,0 m -4.297,16.116 c -5.921,-0.045 -10.013,-4.508 -9.967,-10.87 0.045,-6.114 4.073,-10.384 9.782,-10.37 6.064,0.016 10.266,4.576 10.149,11.016 -0.11,6.065 -4.206,10.268 -9.964,10.224" /></g><g
           transform="translate(392.7461,71.2832)"
           id="g166"><path
             id="path168"
             style="fill:#e8625d;fill-opacity:1;fill-rule:nonzero;stroke:none"
             d="m 0,0 c -1.176,-1.842 -2.884,-3.018 -5.151,-2.819 -2.216,0.194 -3.813,1.477 -4.757,3.48 -1.358,2.881 -1.339,5.803 0.031,8.667 1.063,2.223 2.901,3.435 5.37,3.408 C -2.212,12.71 -0.695,11.321 0.31,9.389 1.004,8.055 1.43,6.613 1.372,5.074 1.437,3.241 0.97,1.519 0,0 m -0.749,14.874 c -3.931,1.545 -8.593,0.505 -11.334,-2.529 -3.771,-4.173 -3.441,-11.729 0.661,-15.577 0.905,-0.849 1.923,-1.473 3.09,-1.879 6.941,-2.411 13.493,2.437 13.555,10.035 0.038,4.588 -2.318,8.514 -5.972,9.95" /></g><g
           transform="translate(484.4854,69.309)"
           id="g170"><path
             id="path172"
             style="fill:#e8625d;fill-opacity:1;fill-rule:nonzero;stroke:none"
             d="m 0,0 c -1.388,-0.958 -2.878,-1.296 -4.481,-0.501 -1.333,0.661 -1.885,1.808 -1.794,3.207 0.113,1.748 1.152,2.927 2.721,3.595 1.668,0.709 3.435,0.794 5.216,0.618 C 2.693,3.624 2.204,1.521 0,0 m 5.893,8.563 c -10e-4,0.656 0.021,1.318 -0.057,1.967 -0.278,2.302 -0.978,4.401 -3.034,5.772 -3.029,2.021 -8.349,1.585 -11.344,-1.017 0.416,-0.542 0.254,-1.405 1.126,-1.888 1.734,0.865 3.632,1.317 5.638,1.129 2.682,-0.25 3.76,-1.636 3.547,-4.521 C 1,9.541 0.13,9.744 -0.696,9.664 -2.961,9.446 -5.154,8.972 -7.087,7.718 -9.603,6.087 -10.653,3.111 -9.758,0.368 c 0.889,-2.722 3.18,-4.162 6.331,-4.077 1.774,0.048 3.236,0.842 4.699,1.699 0.225,0.131 0.519,0.144 0.722,0.196 0.776,-0.195 0.562,-1.276 1.818,-1.358 0.376,-0.005 1.214,-0.202 2.083,0.245 0,3.842 0.002,7.666 -0.002,11.49" /></g><g
           transform="translate(333.2535,69.4549)"
           id="g174"><path
             id="path176"
             style="fill:#e8625d;fill-opacity:1;fill-rule:nonzero;stroke:none"
             d="m 0,0 c -1.843,-1.28 -3.752,-1.615 -5.642,-0.051 -0.61,0.774 -0.812,1.674 -0.955,2.559 1.218,3.719 3.395,4.786 8.345,4.016 C 1.893,4.163 2.44,1.695 0,0 m 5.589,10.106 c -0.08,2.685 -1.134,4.94 -3.497,6.356 -2.847,1.707 -8.051,1.088 -10.875,-1.267 0.531,-0.501 0.169,-1.442 1.052,-1.902 2.875,0.962 5.825,2.113 8.642,-0.139 C 1.401,12.042 1.998,11.062 1.627,9.83 0.852,9.406 -0.012,9.577 -0.836,9.527 -2.731,9.412 -4.545,8.937 -6.246,8.148 c -3.449,-1.599 -4.92,-5.117 -3.6,-8.367 1.205,-2.967 4.473,-4.27 8.021,-3.343 1.405,0.367 2.431,1.322 3.546,1.99 0.855,-0.325 0.424,-1.285 1.242,-1.698 0.809,-0.123 1.799,-0.178 2.671,0.031 0,1.865 0.003,3.531 -0.001,5.198 -0.007,2.716 0.036,5.434 -0.044,8.147" /></g><g
           transform="translate(369.0524,86.7596)"
           id="g178"><path
             id="path180"
             style="fill:#e8625d;fill-opacity:1;fill-rule:nonzero;stroke:none"
             d="m 0,0 c 0,0.739 0.026,1.567 -0.007,2.392 -0.037,0.903 0.204,1.864 -0.49,2.78 -1.222,0.019 -2.32,-0.307 -3.229,-1.013 -0.48,-1.484 0.072,-2.934 -0.402,-4.18 -0.841,-0.73 -1.983,0.02 -2.761,-0.873 0,-0.645 -0.282,-1.38 0.191,-2.058 0.772,-0.63 1.917,0.129 2.752,-0.925 0,-2.147 -0.024,-4.483 0.008,-6.819 0.027,-2.053 -0.157,-4.112 0.317,-6.152 0.621,-2.673 2.116,-4.078 4.807,-4.26 1.113,-0.075 2.257,-0.137 3.468,0.6 0.206,0.914 0.35,1.721 -0.236,2.516 -0.985,0.225 -2.053,-0.153 -3.016,0.315 -1.584,1.85 -2.048,7.4 -1.175,14.137 1.471,0.729 3.141,-0.064 4.658,0.519 0.466,0.802 0.435,1.582 0.03,2.388 C 3.389,-0.021 1.721,-0.81 0,0" /></g><g
           transform="translate(354.1131,77.4104)"
           id="g182"><path
             id="path184"
             style="fill:#e8625d;fill-opacity:1;fill-rule:nonzero;stroke:none"
             d="M 0,0 C -1.015,0.477 -2.095,0.827 -3.078,1.36 -5.286,2.557 -5.462,3.539 -3.91,5.964 -1.73,6.856 0.253,6.229 2.191,5.607 2.946,6.407 3.314,7.193 3.089,8.245 0.842,9.551 -1.546,9.755 -3.97,9.16 -6.558,8.524 -8.23,6.851 -8.685,4.166 c -0.366,-2.161 0.95,-4.318 3.4,-5.607 1.238,-0.652 2.593,-1.089 3.81,-1.774 1.51,-0.85 2.043,-2.127 1.641,-3.515 -0.436,-1.505 -1.611,-1.922 -3.015,-2.043 -1.892,-0.164 -3.641,0.417 -5.291,1.225 -0.689,-1.03 -0.967,-1.876 -0.98,-2.902 2.36,-1.255 4.831,-1.572 7.379,-1.222 3.104,0.425 5.335,2.448 5.7,5.006 C 4.388,-3.667 3.079,-1.445 0,0" /></g><g
           transform="translate(404.1222,95.452)"
           id="g186"><path
             id="path188"
             style="fill:#e8625d;fill-opacity:1;fill-rule:nonzero;stroke:none"
             d="m 0,0 v -29.126 c 1.181,-0.341 2.193,-0.272 3.461,-0.068 V 0.263 C 2.231,0.367 1.163,0.601 0,0" /></g><g
           transform="translate(468.4865,86.1809)"
           id="g190"><path
             id="path192"
             style="fill:#e8625d;fill-opacity:1;fill-rule:nonzero;stroke:none"
             d="m 0,0 c -1.477,0.217 -2.556,0.283 -3.647,-0.021 v -19.916 c 1.281,-0.186 2.359,-0.245 3.299,0.004 0.497,0.799 0.338,1.468 0.34,2.104 C 0.006,-11.956 0,-6.083 0,0" /></g><g
           transform="translate(467.5617,94.0441)"
           id="g194"><path
             id="path196"
             style="fill:#e8625d;fill-opacity:1;fill-rule:nonzero;stroke:none"
             d="m 0,0 c -1.135,0.51 -2.225,0.285 -2.953,-0.811 -0.937,-1.413 -0.318,-2.451 1.004,-3.39 1.624,-0.262 2.802,0.107 3.214,1.67 C 1.565,-1.39 1.034,-0.464 0,0" /></g></g></g></g></svg>